# xmcd CD database file
#
# Track frame offsets:
#	150
#	17982
#	39320
#	58580
#	78070
#	102392
#	118662
#	133862
#	153662
#	187822
#	207822
#	230675
#
# Disc length: 3458 seconds
#
# Revision: 0
# Processed by: cddbd v1.4PL0 Copyright (c) Steve Scherf et al.
# Submitted via: CDex 1.51
#
DISCID=9b0d800c
DTITLE=Various Artist - Everybody's Gettin' Some
DYEAR=1998
DGENRE=Blues
TTITLE0=Big Boss Man (Kenny Neal)
TTITLE1=You Ought To Be Ashamed (Luther "Guitar Junior" Johnson
TTITLE2=Saddle My Pony (Tribute To Howlin' Wolf)
TTITLE3=Get Up, Get Ready (Maria Muldaur)
TTITLE4=Use Me (Junior Wells)
TTITLE5=Rock Me Baby (Hubert Sumlin)
TTITLE6=Ring Me Up (Maria Muldaur)
TTITLE7=Blues Fallin' Down LIke Rain (Kenny Neal)
TTITLE8=Hoochie Coochie Man (PInetop Perkins)
TTITLE9=Just Like I Treat You (Tribute To Howlin' Wolf)
TTITLE10=Got To Find A Way (Luther "Guitar Junior" Johnson)
TTITLE11=Broke And Hungry (Junior Wells)
EXTD=YEAR: 1998
EXTT0=
EXTT1=
EXTT2=
EXTT3=
EXTT4=
EXTT5=
EXTT6=
EXTT7=
EXTT8=
EXTT9=
EXTT10=
EXTT11=
PLAYORDER=
